<?xml version="1.0" encoding="utf-8"?>
<!-- Generator: Adobe Illustrator 25.0.1, SVG Export Plug-In . SVG Version: 6.00 Build 0)  -->
<svg version="1.1" width="50px" height="39px"  xmlns="http://www.w3.org/2000/svg" xmlns:xlink="http://www.w3.org/1999/xlink" 
	 viewBox="0 0 792 612" style="enable-background:new 0 0 792 612;" xml:space="preserve">

<g>
	<path class="st0" d="M560.62,393.64c-24.86-45.45-58.23-94.46-98.71-141.33c-43.32-51.14-90.91-95.87-137.07-129.25
		c-22.72,29.11-44.74,63.2-64.62,99.42l26.99,83.8l-56.11-24.15c-17.04,39.06-29.12,78.12-36.92,115.05
		c43.32,9.95,93.03,16.33,147,17.76l-3.55-56.11l72.44,54.68C463.32,411.39,514.46,404.29,560.62,393.64"/>
	<path class="st0" d="M434.21,20.79c-14.2,8.52-28.4,19.17-42.61,31.24l-4.26,58.24l-27.7-27.7c-8.52,9.23-17.76,19.17-26.28,29.83
		c46.87,34.08,94.46,79.54,139.2,131.38c42.61,49.71,76.7,100.13,102.27,147.01c9.23-2.13,17.75-4.97,26.27-7.11l-14.2-25.56
		l53.27,12.07c14.91-6.39,28.4-12.79,39.77-19.17c2.13-14.2,3.55-29.12,3.55-44.03C683.48,159.99,574.83,39.26,434.21,20.79"/>
	<path class="st0" d="M643,382.98l-17.04,45.45l-18.47-33.39c-8.52,2.84-17.04,4.97-26.28,7.81c15.63,31.25,27.7,61.08,34.09,87.35
		c29.12-34.8,50.42-76.7,60.36-122.86c-9.95,4.97-19.88,9.95-31.24,14.92C644.43,382.28,643.71,382.98,643,382.98"/>
	<path class="st0" d="M412.9,18.66c-5.68,0-11.36-0.71-17.04-0.71c-54.68,0-106.53,15.63-149.85,41.9
		c11.36,4.97,23.43,10.65,36.22,17.76c13.49,7.1,26.99,16.33,40.48,25.56c9.23-10.65,18.47-21.31,27.7-31.24l-20.59-20.6l44.03-2.84
		C386.62,37.83,400.12,27.18,412.9,18.66"/>
	<path class="st0" d="M399.41,428.44l-53.27,53.26l-3.55-52.55c-56.1-1.42-107.23-7.1-151.26-17.75
		c-6.4,31.95-8.52,61.78-7.81,88.77c52.55,57.52,127.83,93.03,211.63,93.03c82.39,0,156.25-34.79,208.8-90.19
		c-6.39-28.4-19.17-61.78-37.64-96.58C516.59,418.49,459.07,426.3,399.41,428.44"/>
	<path class="st0" d="M174.99,257.28l68.89-32.67c21.31-40.48,44.75-77.41,70.31-110.08c-12.79-9.24-25.56-17.05-38.35-24.15
		c-15.63-8.52-30.54-15.63-44.03-20.6c-74.57,51.84-123.58,138.49-123.58,235.79c0,22.72,2.84,44.74,7.81,66.05
		c18.47,8.52,40.48,16.33,64.63,22.02c8.52-37.64,21.31-76.7,38.35-117.18L174.99,257.28z"/>
	<path class="st0" d="M169.31,483.12c0-23.44,2.84-48.29,7.81-74.57c-20.6-5.68-39.77-11.36-56.82-18.47
		C130.96,423.46,148,455.42,169.31,483.12"/>
</g>
</svg>
